<mxfile host="app.diagrams.net" modified="2021-05-20T08:06:47.963Z" agent="5.0 (Windows NT 10.0; Win64; x64) AppleWebKit/537.36 (KHTML, like Gecko) Chrome/89.0.4389.114 Safari/537.36" etag="PPsD0wT5vh9HTwphOHWJ" version="14.6.13" type="github">
  <diagram id="8xj3oHFM6ciYsrrYhh_L" name="Page-1">
    <mxGraphModel dx="1038" dy="1661" grid="1" gridSize="10" guides="1" tooltips="1" connect="1" arrows="1" fold="1" page="1" pageScale="1" pageWidth="827" pageHeight="1169" math="0" shadow="0">
      <root>
        <mxCell id="0" />
        <mxCell id="1" parent="0" />
        <mxCell id="PxllCTnA1B4NUPqQNNj3-2" value="&lt;p class=&quot;MsoNormal&quot; align=&quot;justify&quot; style=&quot;text-align: justify&quot;&gt;&lt;b&gt;&lt;font face=&quot;Calibri&quot; style=&quot;font-size: 14px&quot;&gt;Hierarchical&amp;nbsp;&lt;/font&gt;&lt;/b&gt;&lt;/p&gt;&lt;p class=&quot;MsoNormal&quot; align=&quot;justify&quot; style=&quot;text-align: justify&quot;&gt;&lt;b&gt;&lt;font face=&quot;Calibri&quot; style=&quot;font-size: 14px&quot;&gt;clustering method&lt;/font&gt;&lt;/b&gt;&lt;/p&gt;" style="ellipse;whiteSpace=wrap;html=1;rounded=1;shadow=1;comic=0;labelBackgroundColor=none;strokeWidth=2;fontFamily=Verdana;fontSize=12;align=center;" vertex="1" parent="1">
          <mxGeometry x="565" y="-610" width="135" height="80" as="geometry" />
        </mxCell>
        <mxCell id="PxllCTnA1B4NUPqQNNj3-3" value="&lt;span&gt;&lt;b&gt;&lt;font style=&quot;font-size: 12px&quot;&gt;High Dimensional clustering method&lt;/font&gt;&lt;/b&gt;&lt;/span&gt;" style="ellipse;whiteSpace=wrap;html=1;rounded=1;shadow=1;comic=0;labelBackgroundColor=none;strokeWidth=2;fontFamily=Verdana;fontSize=12;align=center;" vertex="1" parent="1">
          <mxGeometry x="660" y="-500" width="120" height="80" as="geometry" />
        </mxCell>
        <mxCell id="PxllCTnA1B4NUPqQNNj3-4" value="&lt;p class=&quot;MsoNormal&quot;&gt;&lt;span style=&quot;font-size: 12.0000pt&quot;&gt;&lt;font face=&quot;Calibri&quot;&gt;&lt;b&gt;CluStream&lt;/b&gt;&lt;/font&gt;&lt;/span&gt;&lt;/p&gt;" style="whiteSpace=wrap;html=1;rounded=1;shadow=1;comic=0;labelBackgroundColor=none;strokeWidth=2;fontFamily=Verdana;fontSize=12;align=center;arcSize=50;" vertex="1" parent="1">
          <mxGeometry x="680" y="-675" width="100" height="20" as="geometry" />
        </mxCell>
        <mxCell id="PxllCTnA1B4NUPqQNNj3-5" value="&lt;p class=&quot;MsoNormal&quot;&gt;&lt;span style=&quot;font-family: &amp;#34;calibri&amp;#34; ; font-size: 12.0000pt&quot;&gt;&lt;b&gt;REPSTREAM&lt;/b&gt;&lt;/span&gt;&lt;/p&gt;" style="whiteSpace=wrap;html=1;rounded=1;shadow=1;comic=0;labelBackgroundColor=none;strokeWidth=2;fontFamily=Verdana;fontSize=12;align=center;arcSize=50;" vertex="1" parent="1">
          <mxGeometry x="420" y="-700" width="100" height="20" as="geometry" />
        </mxCell>
        <mxCell id="PxllCTnA1B4NUPqQNNj3-6" value="&lt;p class=&quot;MsoNormal&quot;&gt;&lt;b&gt;&lt;span style=&quot;font-family: &amp;#34;calibri&amp;#34; ; font-size: 12.0000pt&quot;&gt;ClusTree&lt;/span&gt;&lt;span style=&quot;font-size: 12.0000pt&quot;&gt;&amp;nbsp;&lt;/span&gt;&lt;/b&gt;&lt;/p&gt;" style="whiteSpace=wrap;html=1;rounded=1;shadow=1;comic=0;labelBackgroundColor=none;strokeWidth=2;fontFamily=Verdana;fontSize=12;align=center;arcSize=50;" vertex="1" parent="1">
          <mxGeometry x="410" y="-610" width="100" height="20" as="geometry" />
        </mxCell>
        <mxCell id="PxllCTnA1B4NUPqQNNj3-7" value="" style="edgeStyle=none;rounded=1;html=1;labelBackgroundColor=none;startArrow=none;startFill=0;startSize=5;endArrow=classicThin;endFill=1;endSize=5;jettySize=auto;orthogonalLoop=1;strokeColor=#B3B3B3;strokeWidth=1;fontFamily=Verdana;fontSize=12" edge="1" parent="1" source="PxllCTnA1B4NUPqQNNj3-2" target="PxllCTnA1B4NUPqQNNj3-6">
          <mxGeometry relative="1" as="geometry" />
        </mxCell>
        <mxCell id="PxllCTnA1B4NUPqQNNj3-8" value="" style="edgeStyle=none;rounded=1;html=1;labelBackgroundColor=none;startArrow=none;startFill=0;startSize=5;endArrow=classicThin;endFill=1;endSize=5;jettySize=auto;orthogonalLoop=1;strokeColor=#B3B3B3;strokeWidth=1;fontFamily=Verdana;fontSize=12" edge="1" parent="1" source="PxllCTnA1B4NUPqQNNj3-2" target="PxllCTnA1B4NUPqQNNj3-5">
          <mxGeometry relative="1" as="geometry" />
        </mxCell>
        <mxCell id="PxllCTnA1B4NUPqQNNj3-9" value="" style="edgeStyle=none;rounded=1;html=1;labelBackgroundColor=none;startArrow=none;startFill=0;startSize=5;endArrow=classicThin;endFill=1;endSize=5;jettySize=auto;orthogonalLoop=1;strokeColor=#B3B3B3;strokeWidth=1;fontFamily=Verdana;fontSize=12" edge="1" parent="1" source="PxllCTnA1B4NUPqQNNj3-2" target="PxllCTnA1B4NUPqQNNj3-4">
          <mxGeometry relative="1" as="geometry" />
        </mxCell>
        <mxCell id="PxllCTnA1B4NUPqQNNj3-10" value="&lt;p class=&quot;MsoNormal&quot;&gt;&lt;span style=&quot;font-family: &amp;#34;calibri&amp;#34; ; font-size: 12.0000pt&quot;&gt;&lt;b&gt;HPSTREAM&amp;nbsp;&lt;/b&gt;&lt;/span&gt;&lt;/p&gt;" style="whiteSpace=wrap;html=1;rounded=1;shadow=1;comic=0;labelBackgroundColor=none;strokeWidth=2;fontFamily=Verdana;fontSize=12;align=center;arcSize=50;" vertex="1" parent="1">
          <mxGeometry x="890" y="-570" width="100" height="30" as="geometry" />
        </mxCell>
        <mxCell id="PxllCTnA1B4NUPqQNNj3-11" value="" style="edgeStyle=none;rounded=1;html=1;labelBackgroundColor=none;startArrow=none;startFill=0;startSize=5;endArrow=classicThin;endFill=1;endSize=5;jettySize=auto;orthogonalLoop=1;strokeColor=#B3B3B3;strokeWidth=1;fontFamily=Verdana;fontSize=12" edge="1" parent="1" source="PxllCTnA1B4NUPqQNNj3-3" target="PxllCTnA1B4NUPqQNNj3-10">
          <mxGeometry relative="1" as="geometry" />
        </mxCell>
        <mxCell id="PxllCTnA1B4NUPqQNNj3-12" value="&lt;p class=&quot;MsoNormal&quot;&gt;&lt;font face=&quot;Calibri&quot;&gt;&lt;span style=&quot;font-size: 16px&quot;&gt;extensions of BIRCH&lt;/span&gt;&lt;/font&gt;&lt;/p&gt;" style="text;whiteSpace=wrap;html=1;" vertex="1" parent="1">
          <mxGeometry x="700" y="-740" width="70" height="10" as="geometry" />
        </mxCell>
        <mxCell id="PxllCTnA1B4NUPqQNNj3-13" value="&lt;p class=&quot;MsoNormal&quot;&gt;&lt;font face=&quot;Calibri&quot; style=&quot;font-size: 13px&quot;&gt;CHAMELEON&lt;/font&gt;&lt;/p&gt;" style="text;whiteSpace=wrap;html=1;" vertex="1" parent="1">
          <mxGeometry x="445" y="-740" width="120" height="35" as="geometry" />
        </mxCell>
        <mxCell id="PxllCTnA1B4NUPqQNNj3-14" value="" style="edgeStyle=none;rounded=1;html=1;labelBackgroundColor=none;startArrow=none;startFill=0;startSize=5;endArrow=classicThin;endFill=1;endSize=5;jettySize=auto;orthogonalLoop=1;strokeColor=#B3B3B3;strokeWidth=1;fontFamily=Verdana;fontSize=12;entryX=0;entryY=0.5;entryDx=0;entryDy=0;" edge="1" parent="1" target="PxllCTnA1B4NUPqQNNj3-10">
          <mxGeometry relative="1" as="geometry">
            <mxPoint x="700.0048576646936" y="-569.6337493576311" as="sourcePoint" />
            <mxPoint x="861.0633333333333" y="-630" as="targetPoint" />
          </mxGeometry>
        </mxCell>
        <mxCell id="PxllCTnA1B4NUPqQNNj3-15" value="&lt;p class=&quot;MsoNormal&quot;&gt;&lt;span style=&quot;font-family: &amp;#34;cmr10&amp;#34; ; font-size: 13.284px ; text-align: left&quot;&gt;&lt;b&gt;SWClustering&lt;/b&gt;&lt;/span&gt;&lt;br&gt;&lt;/p&gt;" style="whiteSpace=wrap;html=1;rounded=1;shadow=1;comic=0;labelBackgroundColor=none;strokeWidth=2;fontFamily=Verdana;fontSize=12;align=center;arcSize=50;" vertex="1" parent="1">
          <mxGeometry x="790" y="-780" width="110" height="20" as="geometry" />
        </mxCell>
        <mxCell id="PxllCTnA1B4NUPqQNNj3-16" value="&lt;p class=&quot;MsoNormal&quot;&gt;&lt;font face=&quot;Calibri&quot;&gt;&lt;span style=&quot;font-size: 16px&quot;&gt;extensions of BIRCH&lt;/span&gt;&lt;/font&gt;&lt;/p&gt;" style="text;whiteSpace=wrap;html=1;" vertex="1" parent="1">
          <mxGeometry x="430" y="-670" width="70" height="10" as="geometry" />
        </mxCell>
        <mxCell id="PxllCTnA1B4NUPqQNNj3-17" value="&lt;p class=&quot;MsoNormal&quot;&gt;&lt;span style=&quot;font-family: &amp;#34;cmr10&amp;#34; ; font-size: 13.284px ; text-align: left&quot;&gt;&lt;b&gt;E-Stream&lt;/b&gt;&lt;/span&gt;&lt;br&gt;&lt;/p&gt;" style="whiteSpace=wrap;html=1;rounded=1;shadow=1;comic=0;labelBackgroundColor=none;strokeWidth=2;fontFamily=Verdana;fontSize=12;align=center;arcSize=50;" vertex="1" parent="1">
          <mxGeometry x="590" y="-800" width="110" height="20" as="geometry" />
        </mxCell>
        <mxCell id="PxllCTnA1B4NUPqQNNj3-19" value="" style="edgeStyle=none;rounded=1;html=1;labelBackgroundColor=none;startArrow=none;startFill=0;startSize=5;endArrow=classicThin;endFill=1;endSize=5;jettySize=auto;orthogonalLoop=1;strokeColor=#B3B3B3;strokeWidth=1;fontFamily=Verdana;fontSize=12;exitX=0.25;exitY=0;exitDx=0;exitDy=0;entryX=0.574;entryY=1.197;entryDx=0;entryDy=0;entryPerimeter=0;" edge="1" parent="1" source="PxllCTnA1B4NUPqQNNj3-4" target="PxllCTnA1B4NUPqQNNj3-17">
          <mxGeometry relative="1" as="geometry">
            <mxPoint x="677.6114701670876" y="-594.1625115139234" as="sourcePoint" />
            <mxPoint x="729.7368421052631" y="-645.0000000000002" as="targetPoint" />
          </mxGeometry>
        </mxCell>
        <mxCell id="PxllCTnA1B4NUPqQNNj3-20" value="&lt;span style=&quot;font-family: &amp;#34;helvetica&amp;#34;&quot;&gt;Extended from CluStream&lt;/span&gt;" style="edgeLabel;html=1;align=center;verticalAlign=middle;resizable=0;points=[];" vertex="1" connectable="0" parent="PxllCTnA1B4NUPqQNNj3-19">
          <mxGeometry x="0.2794" relative="1" as="geometry">
            <mxPoint as="offset" />
          </mxGeometry>
        </mxCell>
        <mxCell id="PxllCTnA1B4NUPqQNNj3-21" value="&lt;br&gt;&lt;br&gt;&lt;span style=&quot;font-size: 11px ; font-family: &amp;#34;helvetica&amp;#34; ; background-color: rgb(255 , 255 , 255)&quot;&gt;Extended from&lt;br&gt;&amp;nbsp;CluStream&lt;/span&gt;" style="edgeStyle=none;rounded=1;html=1;labelBackgroundColor=none;startArrow=none;startFill=0;startSize=5;endArrow=classicThin;endFill=1;endSize=5;jettySize=auto;orthogonalLoop=1;strokeColor=#B3B3B3;strokeWidth=1;fontFamily=Verdana;fontSize=12;entryX=0.5;entryY=1;entryDx=0;entryDy=0;exitX=0.606;exitY=-0.112;exitDx=0;exitDy=0;exitPerimeter=0;" edge="1" parent="1" source="PxllCTnA1B4NUPqQNNj3-4" target="PxllCTnA1B4NUPqQNNj3-15">
          <mxGeometry x="0.4739" y="-10" relative="1" as="geometry">
            <mxPoint x="750" y="-670" as="sourcePoint" />
            <mxPoint x="729.7368421052631" y="-645.0000000000002" as="targetPoint" />
            <Array as="points">
              <mxPoint x="840" y="-720" />
            </Array>
            <mxPoint as="offset" />
          </mxGeometry>
        </mxCell>
        <mxCell id="PxllCTnA1B4NUPqQNNj3-22" value="&#xa;&#xa;&lt;br style=&quot;color: rgb(0, 0, 0); font-family: verdana; font-size: 12px; font-style: normal; font-weight: 400; letter-spacing: normal; text-align: center; text-indent: 0px; text-transform: none; word-spacing: 0px; background-color: rgb(248, 249, 250);&quot;&gt;&lt;br style=&quot;color: rgb(0, 0, 0); font-family: verdana; font-size: 12px; font-style: normal; font-weight: 400; letter-spacing: normal; text-align: center; text-indent: 0px; text-transform: none; word-spacing: 0px; background-color: rgb(248, 249, 250);&quot;&gt;&lt;span style=&quot;color: rgb(0, 0, 0); font-size: 11px; font-style: normal; font-weight: 400; letter-spacing: normal; text-align: center; text-indent: 0px; text-transform: none; word-spacing: 0px; font-family: helvetica; background-color: rgb(255, 255, 255); display: inline; float: none;&quot;&gt;Extended from CluStream&lt;/span&gt;&lt;br style=&quot;color: rgb(0, 0, 0); font-family: verdana; font-size: 12px; font-style: normal; font-weight: 400; letter-spacing: normal; text-align: center; text-indent: 0px; text-transform: none; word-spacing: 0px; background-color: rgb(248, 249, 250);&quot;&gt;&#xa;&#xa;" style="edgeStyle=none;rounded=1;html=1;labelBackgroundColor=none;startArrow=none;startFill=0;startSize=5;endArrow=classicThin;endFill=1;endSize=5;jettySize=auto;orthogonalLoop=1;strokeColor=#B3B3B3;strokeWidth=1;fontFamily=Verdana;fontSize=12;exitX=0.75;exitY=1;exitDx=0;exitDy=0;entryX=0.351;entryY=0.033;entryDx=0;entryDy=0;entryPerimeter=0;" edge="1" parent="1" source="PxllCTnA1B4NUPqQNNj3-4" target="PxllCTnA1B4NUPqQNNj3-10">
          <mxGeometry relative="1" as="geometry">
            <mxPoint x="677.6114701670876" y="-594.1625115139234" as="sourcePoint" />
            <mxPoint x="729.7368421052631" y="-645.0000000000002" as="targetPoint" />
          </mxGeometry>
        </mxCell>
        <mxCell id="PxllCTnA1B4NUPqQNNj3-23" value="&lt;span style=&quot;color: rgba(0 , 0 , 0 , 0) ; font-family: monospace ; font-size: 0px ; background-color: rgb(248 , 249 , 250)&quot;&gt;%3CmxGraphModel%3E%3Croot%3E%3CmxCell%20id%3D%220%22%2F%3E%3CmxCell%20id%3D%221%22%20parent%3D%220%22%2F%3E%3CmxCell%20id%3D%222%22%20value%3D%22%26%2310%3B%26%2310%3B%26lt%3Bspan%20style%3D%26quot%3Bcolor%3A%20rgb(0%2C%200%2C%200)%3B%20font-family%3A%20helvetica%3B%20font-size%3A%2011px%3B%20font-style%3A%20normal%3B%20font-weight%3A%20400%3B%20letter-spacing%3A%20normal%3B%20text-align%3A%20center%3B%20text-indent%3A%200px%3B%20text-transform%3A%20none%3B%20word-spacing%3A%200px%3B%20background-color%3A%20rgb(255%2C%20255%2C%20255)%3B%20display%3A%20inline%3B%20float%3A%20none%3B%26quot%3B%26gt%3BExtended%20from%20CluStream%26lt%3B%2Fspan%26gt%3B%26%2310%3B%26%2310%3B%22%20style%3D%22edgeStyle%3Dnone%3Brounded%3D1%3Bhtml%3D1%3BlabelBackgroundColor%3Dnone%3BstartArrow%3Dnone%3BstartFill%3D0%3BstartSize%3D5%3BendArrow%3DclassicThin%3BendFill%3D1%3BendSize%3D5%3BjettySize%3Dauto%3BorthogonalLoop%3D1%3BstrokeColor%3D%23B3B3B3%3BstrokeWidth%3D1%3BfontFamily%3DVerdana%3BfontSize%3D12%3BentryX%3D0.5%3BentryY%3D1%3BentryDx%3D0%3BentryDy%3D0%3BexitX%3D0.606%3BexitY%3D-0.112%3BexitDx%3D0%3BexitDy%3D0%3BexitPerimeter%3D0%3B%22%20edge%3D%221%22%20parent%3D%221%22%3E%3CmxGeometry%20x%3D%220.6614%22%20y%3D%22-20%22%20relative%3D%221%22%20as%3D%22geometry%22%3E%3CmxPoint%20x%3D%22800.5999999999999%22%20y%3D%2242.75999999999999%22%20as%3D%22sourcePoint%22%2F%3E%3CmxPoint%20x%3D%22905%22%20y%3D%22-40.00000000000023%22%20as%3D%22targetPoint%22%2F%3E%3CmxPoint%20as%3D%22offset%22%2F%3E%3C%2FmxGeometry%3E%3C%2FmxCell%3E%3C%2Froot%3E%3C%2FmxGraphModel%3E&lt;/span&gt;" style="edgeLabel;html=1;align=center;verticalAlign=middle;resizable=0;points=[];" vertex="1" connectable="0" parent="PxllCTnA1B4NUPqQNNj3-22">
          <mxGeometry x="-0.1967" relative="1" as="geometry">
            <mxPoint as="offset" />
          </mxGeometry>
        </mxCell>
        <mxCell id="PxllCTnA1B4NUPqQNNj3-24" value="&lt;span style=&quot;color: rgba(0 , 0 , 0 , 0) ; font-family: monospace ; font-size: 0px ; background-color: rgb(248 , 249 , 250)&quot;&gt;%3CmxGraphModel%3E%3Croot%3E%3CmxCell%20id%3D%220%22%2F%3E%3CmxCell%20id%3D%221%22%20parent%3D%220%22%2F%3E%3CmxCell%20id%3D%222%22%20value%3D%22%26%2310%3B%26%2310%3B%26lt%3Bspan%20style%3D%26quot%3Bcolor%3A%20rgb(0%2C%200%2C%200)%3B%20font-family%3A%20helvetica%3B%20font-size%3A%2011px%3B%20font-style%3A%20normal%3B%20font-weight%3A%20400%3B%20letter-spacing%3A%20normal%3B%20text-align%3A%20center%3B%20text-indent%3A%200px%3B%20text-transform%3A%20none%3B%20word-spacing%3A%200px%3B%20background-color%3A%20rgb(255%2C%20255%2C%20255)%3B%20display%3A%20inline%3B%20float%3A%20none%3B%26quot%3B%26gt%3BExtended%20from%20CluStream%26lt%3B%2Fspan%26gt%3B%26%2310%3B%26%2310%3B%22%20style%3D%22edgeStyle%3Dnone%3Brounded%3D1%3Bhtml%3D1%3BlabelBackgroundColor%3Dnone%3BstartArrow%3Dnone%3BstartFill%3D0%3BstartSize%3D5%3BendArrow%3DclassicThin%3BendFill%3D1%3BendSize%3D5%3BjettySize%3Dauto%3BorthogonalLoop%3D1%3BstrokeColor%3D%23B3B3B3%3BstrokeWidth%3D1%3BfontFamily%3DVerdana%3BfontSize%3D12%3BentryX%3D0.5%3BentryY%3D1%3BentryDx%3D0%3BentryDy%3D0%3BexitX%3D0.606%3BexitY%3D-0.112%3BexitDx%3D0%3BexitDy%3D0%3BexitPerimeter%3D0%3B%22%20edge%3D%221%22%20parent%3D%221%22%3E%3CmxGeometry%20x%3D%220.6614%22%20y%3D%22-20%22%20relative%3D%221%22%20as%3D%22geometry%22%3E%3CmxPoint%20x%3D%22800.5999999999999%22%20y%3D%2242.75999999999999%22%20as%3D%22sourcePoint%22%2F%3E%3CmxPoint%20x%3D%22905%22%20y%3D%22-40.00000000000023%22%20as%3D%22targetPoint%22%2F%3E%3CmxPoint%20as%3D%22offset%22%2F%3E%3C%2FmxGeometry%3E%3C%2FmxCell%3E%3C%2Froot%3E%3C%2FmxGraphModel%3E&lt;/span&gt;&lt;span style=&quot;color: rgba(0 , 0 , 0 , 0) ; font-family: monospace ; font-size: 0px ; background-color: rgb(248 , 249 , 250)&quot;&gt;%3CmxGraphModel%3E%3Croot%3E%3CmxCell%20id%3D%220%22%2F%3E%3CmxCell%20id%3D%221%22%20parent%3D%220%22%2F%3E%3CmxCell%20id%3D%222%22%20value%3D%22%26%2310%3B%26%2310%3B%26lt%3Bspan%20style%3D%26quot%3Bcolor%3A%20rgb(0%2C%200%2C%200)%3B%20font-family%3A%20helvetica%3B%20font-size%3A%2011px%3B%20font-style%3A%20normal%3B%20font-weight%3A%20400%3B%20letter-spacing%3A%20normal%3B%20text-align%3A%20center%3B%20text-indent%3A%200px%3B%20text-transform%3A%20none%3B%20word-spacing%3A%200px%3B%20background-color%3A%20rgb(255%2C%20255%2C%20255)%3B%20display%3A%20inline%3B%20float%3A%20none%3B%26quot%3B%26gt%3BExtended%20from%20CluStream%26lt%3B%2Fspan%26gt%3B%26%2310%3B%26%2310%3B%22%20style%3D%22edgeStyle%3Dnone%3Brounded%3D1%3Bhtml%3D1%3BlabelBackgroundColor%3Dnone%3BstartArrow%3Dnone%3BstartFill%3D0%3BstartSize%3D5%3BendArrow%3DclassicThin%3BendFill%3D1%3BendSize%3D5%3BjettySize%3Dauto%3BorthogonalLoop%3D1%3BstrokeColor%3D%23B3B3B3%3BstrokeWidth%3D1%3BfontFamily%3DVerdana%3BfontSize%3D12%3BentryX%3D0.5%3BentryY%3D1%3BentryDx%3D0%3BentryDy%3D0%3BexitX%3D0.606%3BexitY%3D-0.112%3BexitDx%3D0%3BexitDy%3D0%3BexitPerimeter%3D0%3B%22%20edge%3D%221%22%20parent%3D%221%22%3E%3CmxGeometry%20x%3D%220.6614%22%20y%3D%22-20%22%20relative%3D%221%22%20as%3D%22geometry%22%3E%3CmxPoint%20x%3D%22800.5999999999999%22%20y%3D%2242.75999999999999%22%20as%3D%22sourcePoint%22%2F%3E%3CmxPoint%20x%3D%22905%22%20y%3D%22-40.00000000000023%22%20as%3D%22targetPoint%22%2F%3E%3CmxPoint%20as%3D%22offset%22%2F%3E%3C%2FmxGeometry%3E%3C%2FmxCell%3E%3C%2Froot%3E%3C%2FmxGraphModel%3E&lt;/span&gt;" style="edgeLabel;html=1;align=center;verticalAlign=middle;resizable=0;points=[];" vertex="1" connectable="0" parent="PxllCTnA1B4NUPqQNNj3-22">
          <mxGeometry x="-0.2298" y="-1" relative="1" as="geometry">
            <mxPoint as="offset" />
          </mxGeometry>
        </mxCell>
        <mxCell id="PxllCTnA1B4NUPqQNNj3-25" value="&lt;div&gt;&lt;span style=&quot;font-size: 8.4682pt ; font-family: &amp;#34;advpcourier&amp;#34;&quot;&gt;HCluStream&lt;/span&gt;&lt;/div&gt;" style="whiteSpace=wrap;html=1;rounded=1;shadow=1;comic=0;labelBackgroundColor=none;strokeWidth=2;fontFamily=Verdana;fontSize=12;align=center;arcSize=50;" vertex="1" parent="1">
          <mxGeometry x="890" y="-680" width="95" height="20" as="geometry" />
        </mxCell>
        <mxCell id="PxllCTnA1B4NUPqQNNj3-26" value="&amp;nbsp;" style="edgeStyle=none;rounded=1;html=1;labelBackgroundColor=none;startArrow=none;startFill=0;startSize=5;endArrow=classicThin;endFill=1;endSize=5;jettySize=auto;orthogonalLoop=1;strokeColor=#B3B3B3;strokeWidth=1;fontFamily=Verdana;fontSize=12;exitX=1;exitY=0.75;exitDx=0;exitDy=0;entryX=0;entryY=0.75;entryDx=0;entryDy=0;" edge="1" parent="1" source="PxllCTnA1B4NUPqQNNj3-4" target="PxllCTnA1B4NUPqQNNj3-25">
          <mxGeometry x="0.2742" y="2" relative="1" as="geometry">
            <mxPoint x="765" y="-645" as="sourcePoint" />
            <mxPoint x="935.0999999999999" y="-559.01" as="targetPoint" />
            <mxPoint as="offset" />
          </mxGeometry>
        </mxCell>
        <mxCell id="PxllCTnA1B4NUPqQNNj3-27" value="&lt;span style=&quot;color: rgba(0 , 0 , 0 , 0) ; font-family: monospace ; font-size: 0px ; background-color: rgb(248 , 249 , 250)&quot;&gt;%3CmxGraphModel%3E%3Croot%3E%3CmxCell%20id%3D%220%22%2F%3E%3CmxCell%20id%3D%221%22%20parent%3D%220%22%2F%3E%3CmxCell%20id%3D%222%22%20value%3D%22%26%2310%3B%26%2310%3B%26lt%3Bspan%20style%3D%26quot%3Bcolor%3A%20rgb(0%2C%200%2C%200)%3B%20font-family%3A%20helvetica%3B%20font-size%3A%2011px%3B%20font-style%3A%20normal%3B%20font-weight%3A%20400%3B%20letter-spacing%3A%20normal%3B%20text-align%3A%20center%3B%20text-indent%3A%200px%3B%20text-transform%3A%20none%3B%20word-spacing%3A%200px%3B%20background-color%3A%20rgb(255%2C%20255%2C%20255)%3B%20display%3A%20inline%3B%20float%3A%20none%3B%26quot%3B%26gt%3BExtended%20from%20CluStream%26lt%3B%2Fspan%26gt%3B%26%2310%3B%26%2310%3B%22%20style%3D%22edgeStyle%3Dnone%3Brounded%3D1%3Bhtml%3D1%3BlabelBackgroundColor%3Dnone%3BstartArrow%3Dnone%3BstartFill%3D0%3BstartSize%3D5%3BendArrow%3DclassicThin%3BendFill%3D1%3BendSize%3D5%3BjettySize%3Dauto%3BorthogonalLoop%3D1%3BstrokeColor%3D%23B3B3B3%3BstrokeWidth%3D1%3BfontFamily%3DVerdana%3BfontSize%3D12%3BentryX%3D0.5%3BentryY%3D1%3BentryDx%3D0%3BentryDy%3D0%3BexitX%3D0.606%3BexitY%3D-0.112%3BexitDx%3D0%3BexitDy%3D0%3BexitPerimeter%3D0%3B%22%20edge%3D%221%22%20parent%3D%221%22%3E%3CmxGeometry%20x%3D%220.6614%22%20y%3D%22-20%22%20relative%3D%221%22%20as%3D%22geometry%22%3E%3CmxPoint%20x%3D%22800.5999999999999%22%20y%3D%2242.75999999999999%22%20as%3D%22sourcePoint%22%2F%3E%3CmxPoint%20x%3D%22905%22%20y%3D%22-40.00000000000023%22%20as%3D%22targetPoint%22%2F%3E%3CmxPoint%20as%3D%22offset%22%2F%3E%3C%2FmxGeometry%3E%3C%2FmxCell%3E%3C%2Froot%3E%3C%2FmxGraphModel%3E&lt;/span&gt;" style="edgeLabel;html=1;align=center;verticalAlign=middle;resizable=0;points=[];" vertex="1" connectable="0" parent="PxllCTnA1B4NUPqQNNj3-26">
          <mxGeometry x="-0.1967" relative="1" as="geometry">
            <mxPoint as="offset" />
          </mxGeometry>
        </mxCell>
        <mxCell id="PxllCTnA1B4NUPqQNNj3-28" value="&lt;span style=&quot;color: rgba(0 , 0 , 0 , 0) ; font-family: monospace ; font-size: 0px ; background-color: rgb(248 , 249 , 250)&quot;&gt;%3CmxGraphModel%3E%3Croot%3E%3CmxCell%20id%3D%220%22%2F%3E%3CmxCell%20id%3D%221%22%20parent%3D%220%22%2F%3E%3CmxCell%20id%3D%222%22%20value%3D%22%26%2310%3B%26%2310%3B%26lt%3Bspan%20style%3D%26quot%3Bcolor%3A%20rgb(0%2C%200%2C%200)%3B%20font-family%3A%20helvetica%3B%20font-size%3A%2011px%3B%20font-style%3A%20normal%3B%20font-weight%3A%20400%3B%20letter-spacing%3A%20normal%3B%20text-align%3A%20center%3B%20text-indent%3A%200px%3B%20text-transform%3A%20none%3B%20word-spacing%3A%200px%3B%20background-color%3A%20rgb(255%2C%20255%2C%20255)%3B%20display%3A%20inline%3B%20float%3A%20none%3B%26quot%3B%26gt%3BExtended%20from%20CluStream%26lt%3B%2Fspan%26gt%3B%26%2310%3B%26%2310%3B%22%20style%3D%22edgeStyle%3Dnone%3Brounded%3D1%3Bhtml%3D1%3BlabelBackgroundColor%3Dnone%3BstartArrow%3Dnone%3BstartFill%3D0%3BstartSize%3D5%3BendArrow%3DclassicThin%3BendFill%3D1%3BendSize%3D5%3BjettySize%3Dauto%3BorthogonalLoop%3D1%3BstrokeColor%3D%23B3B3B3%3BstrokeWidth%3D1%3BfontFamily%3DVerdana%3BfontSize%3D12%3BentryX%3D0.5%3BentryY%3D1%3BentryDx%3D0%3BentryDy%3D0%3BexitX%3D0.606%3BexitY%3D-0.112%3BexitDx%3D0%3BexitDy%3D0%3BexitPerimeter%3D0%3B%22%20edge%3D%221%22%20parent%3D%221%22%3E%3CmxGeometry%20x%3D%220.6614%22%20y%3D%22-20%22%20relative%3D%221%22%20as%3D%22geometry%22%3E%3CmxPoint%20x%3D%22800.5999999999999%22%20y%3D%2242.75999999999999%22%20as%3D%22sourcePoint%22%2F%3E%3CmxPoint%20x%3D%22905%22%20y%3D%22-40.00000000000023%22%20as%3D%22targetPoint%22%2F%3E%3CmxPoint%20as%3D%22offset%22%2F%3E%3C%2FmxGeometry%3E%3C%2FmxCell%3E%3C%2Froot%3E%3C%2FmxGraphModel%3E&lt;/span&gt;&lt;span style=&quot;color: rgba(0 , 0 , 0 , 0) ; font-family: monospace ; font-size: 0px ; background-color: rgb(248 , 249 , 250)&quot;&gt;%3CmxGraphModel%3E%3Croot%3E%3CmxCell%20id%3D%220%22%2F%3E%3CmxCell%20id%3D%221%22%20parent%3D%220%22%2F%3E%3CmxCell%20id%3D%222%22%20value%3D%22%26%2310%3B%26%2310%3B%26lt%3Bspan%20style%3D%26quot%3Bcolor%3A%20rgb(0%2C%200%2C%200)%3B%20font-family%3A%20helvetica%3B%20font-size%3A%2011px%3B%20font-style%3A%20normal%3B%20font-weight%3A%20400%3B%20letter-spacing%3A%20normal%3B%20text-align%3A%20center%3B%20text-indent%3A%200px%3B%20text-transform%3A%20none%3B%20word-spacing%3A%200px%3B%20background-color%3A%20rgb(255%2C%20255%2C%20255)%3B%20display%3A%20inline%3B%20float%3A%20none%3B%26quot%3B%26gt%3BExtended%20from%20CluStream%26lt%3B%2Fspan%26gt%3B%26%2310%3B%26%2310%3B%22%20style%3D%22edgeStyle%3Dnone%3Brounded%3D1%3Bhtml%3D1%3BlabelBackgroundColor%3Dnone%3BstartArrow%3Dnone%3BstartFill%3D0%3BstartSize%3D5%3BendArrow%3DclassicThin%3BendFill%3D1%3BendSize%3D5%3BjettySize%3Dauto%3BorthogonalLoop%3D1%3BstrokeColor%3D%23B3B3B3%3BstrokeWidth%3D1%3BfontFamily%3DVerdana%3BfontSize%3D12%3BentryX%3D0.5%3BentryY%3D1%3BentryDx%3D0%3BentryDy%3D0%3BexitX%3D0.606%3BexitY%3D-0.112%3BexitDx%3D0%3BexitDy%3D0%3BexitPerimeter%3D0%3B%22%20edge%3D%221%22%20parent%3D%221%22%3E%3CmxGeometry%20x%3D%220.6614%22%20y%3D%22-20%22%20relative%3D%221%22%20as%3D%22geometry%22%3E%3CmxPoint%20x%3D%22800.5999999999999%22%20y%3D%2242.75999999999999%22%20as%3D%22sourcePoint%22%2F%3E%3CmxPoint%20x%3D%22905%22%20y%3D%22-40.00000000000023%22%20as%3D%22targetPoint%22%2F%3E%3CmxPoint%20as%3D%22offset%22%2F%3E%3C%2FmxGeometry%3E%3C%2FmxCell%3E%3C%2Froot%3E%3C%2FmxGraphModel%3E&lt;/span&gt;" style="edgeLabel;html=1;align=center;verticalAlign=middle;resizable=0;points=[];" vertex="1" connectable="0" parent="PxllCTnA1B4NUPqQNNj3-26">
          <mxGeometry x="-0.2298" y="-1" relative="1" as="geometry">
            <mxPoint as="offset" />
          </mxGeometry>
        </mxCell>
        <mxCell id="PxllCTnA1B4NUPqQNNj3-29" value="&lt;div&gt;&lt;span style=&quot;font-size: 8.4682pt ; font-family: &amp;#34;advpcourier&amp;#34;&quot;&gt;HUE-Stream&lt;/span&gt;&lt;/div&gt;" style="whiteSpace=wrap;html=1;rounded=1;shadow=1;comic=0;labelBackgroundColor=none;strokeWidth=2;fontFamily=Verdana;fontSize=12;align=center;arcSize=50;" vertex="1" parent="1">
          <mxGeometry x="430" y="-800" width="110" height="20" as="geometry" />
        </mxCell>
        <mxCell id="PxllCTnA1B4NUPqQNNj3-30" value="" style="edgeStyle=none;rounded=1;html=1;labelBackgroundColor=none;startArrow=none;startFill=0;startSize=5;endArrow=classicThin;endFill=1;endSize=5;jettySize=auto;orthogonalLoop=1;strokeColor=#B3B3B3;strokeWidth=1;fontFamily=Verdana;fontSize=12;entryX=1;entryY=0.75;entryDx=0;entryDy=0;exitX=0;exitY=0.75;exitDx=0;exitDy=0;" edge="1" parent="1" source="PxllCTnA1B4NUPqQNNj3-17" target="PxllCTnA1B4NUPqQNNj3-29">
          <mxGeometry relative="1" as="geometry">
            <mxPoint x="615.0856535413923" y="-596.5524619448101" as="sourcePoint" />
            <mxPoint x="587.5757575757575" y="-632.5" as="targetPoint" />
          </mxGeometry>
        </mxCell>
        <mxCell id="PxllCTnA1B4NUPqQNNj3-31" value="&lt;div&gt;&lt;span style=&quot;font-size: 8.4682pt ; font-family: &amp;#34;advpcourier&amp;#34;&quot;&gt;LiarTree&lt;/span&gt;&lt;/div&gt;" style="whiteSpace=wrap;html=1;rounded=1;shadow=1;comic=0;labelBackgroundColor=none;strokeWidth=2;fontFamily=Verdana;fontSize=12;align=center;arcSize=50;" vertex="1" parent="1">
          <mxGeometry x="260" y="-610" width="100" height="20" as="geometry" />
        </mxCell>
        <mxCell id="PxllCTnA1B4NUPqQNNj3-32" value="" style="edgeStyle=none;rounded=1;html=1;labelBackgroundColor=none;startArrow=none;startFill=0;startSize=5;endArrow=classicThin;endFill=1;endSize=5;jettySize=auto;orthogonalLoop=1;strokeColor=#B3B3B3;strokeWidth=1;fontFamily=Verdana;fontSize=12;exitX=0;exitY=0.5;exitDx=0;exitDy=0;entryX=1;entryY=0.75;entryDx=0;entryDy=0;" edge="1" parent="1" source="PxllCTnA1B4NUPqQNNj3-6" target="PxllCTnA1B4NUPqQNNj3-31">
          <mxGeometry relative="1" as="geometry">
            <mxPoint x="577.6792116830516" y="-571.1576766775074" as="sourcePoint" />
            <mxPoint x="520" y="-581.304347826087" as="targetPoint" />
          </mxGeometry>
        </mxCell>
        <mxCell id="PxllCTnA1B4NUPqQNNj3-33" value="&lt;div&gt;&lt;b&gt;&lt;span style=&quot;font-size: 8.4682pt ; font-family: &amp;#34;advpcourier&amp;#34;&quot;&gt;StreamKM&lt;/span&gt;&lt;span style=&quot;font-size: 8.4682pt&quot;&gt;&lt;font face=&quot;AdvTir_symb&quot;&gt;++&lt;/font&gt;&lt;/span&gt;&lt;/b&gt;&lt;/div&gt;" style="whiteSpace=wrap;html=1;rounded=1;shadow=1;comic=0;labelBackgroundColor=none;strokeWidth=2;fontFamily=Verdana;fontSize=12;align=center;arcSize=50;" vertex="1" parent="1">
          <mxGeometry x="950" y="-780" width="110" height="20" as="geometry" />
        </mxCell>
        <mxCell id="PxllCTnA1B4NUPqQNNj3-34" value="&lt;div&gt;&lt;font face=&quot;advpcourier&quot;&gt;&lt;span style=&quot;font-size: 11.2909px&quot;&gt;&lt;b&gt;BICO&lt;/b&gt;&lt;/span&gt;&lt;/font&gt;&lt;/div&gt;" style="whiteSpace=wrap;html=1;rounded=1;shadow=1;comic=0;labelBackgroundColor=none;strokeWidth=2;fontFamily=Verdana;fontSize=12;align=center;arcSize=50;" vertex="1" parent="1">
          <mxGeometry x="1110" y="-780" width="110" height="20" as="geometry" />
        </mxCell>
        <mxCell id="PxllCTnA1B4NUPqQNNj3-35" value="&amp;nbsp;" style="edgeStyle=none;rounded=1;html=1;labelBackgroundColor=none;startArrow=none;startFill=0;startSize=5;endArrow=classicThin;endFill=1;endSize=5;jettySize=auto;orthogonalLoop=1;strokeColor=#B3B3B3;strokeWidth=1;fontFamily=Verdana;fontSize=12;exitX=1;exitY=0.5;exitDx=0;exitDy=0;entryX=0;entryY=0.5;entryDx=0;entryDy=0;" edge="1" parent="1" source="PxllCTnA1B4NUPqQNNj3-15" target="PxllCTnA1B4NUPqQNNj3-33">
          <mxGeometry x="0.2742" y="2" relative="1" as="geometry">
            <mxPoint x="790" y="-650" as="sourcePoint" />
            <mxPoint x="900" y="-655" as="targetPoint" />
            <mxPoint as="offset" />
          </mxGeometry>
        </mxCell>
        <mxCell id="PxllCTnA1B4NUPqQNNj3-36" value="&lt;span style=&quot;color: rgba(0 , 0 , 0 , 0) ; font-family: monospace ; font-size: 0px ; background-color: rgb(248 , 249 , 250)&quot;&gt;%3CmxGraphModel%3E%3Croot%3E%3CmxCell%20id%3D%220%22%2F%3E%3CmxCell%20id%3D%221%22%20parent%3D%220%22%2F%3E%3CmxCell%20id%3D%222%22%20value%3D%22%26%2310%3B%26%2310%3B%26lt%3Bspan%20style%3D%26quot%3Bcolor%3A%20rgb(0%2C%200%2C%200)%3B%20font-family%3A%20helvetica%3B%20font-size%3A%2011px%3B%20font-style%3A%20normal%3B%20font-weight%3A%20400%3B%20letter-spacing%3A%20normal%3B%20text-align%3A%20center%3B%20text-indent%3A%200px%3B%20text-transform%3A%20none%3B%20word-spacing%3A%200px%3B%20background-color%3A%20rgb(255%2C%20255%2C%20255)%3B%20display%3A%20inline%3B%20float%3A%20none%3B%26quot%3B%26gt%3BExtended%20from%20CluStream%26lt%3B%2Fspan%26gt%3B%26%2310%3B%26%2310%3B%22%20style%3D%22edgeStyle%3Dnone%3Brounded%3D1%3Bhtml%3D1%3BlabelBackgroundColor%3Dnone%3BstartArrow%3Dnone%3BstartFill%3D0%3BstartSize%3D5%3BendArrow%3DclassicThin%3BendFill%3D1%3BendSize%3D5%3BjettySize%3Dauto%3BorthogonalLoop%3D1%3BstrokeColor%3D%23B3B3B3%3BstrokeWidth%3D1%3BfontFamily%3DVerdana%3BfontSize%3D12%3BentryX%3D0.5%3BentryY%3D1%3BentryDx%3D0%3BentryDy%3D0%3BexitX%3D0.606%3BexitY%3D-0.112%3BexitDx%3D0%3BexitDy%3D0%3BexitPerimeter%3D0%3B%22%20edge%3D%221%22%20parent%3D%221%22%3E%3CmxGeometry%20x%3D%220.6614%22%20y%3D%22-20%22%20relative%3D%221%22%20as%3D%22geometry%22%3E%3CmxPoint%20x%3D%22800.5999999999999%22%20y%3D%2242.75999999999999%22%20as%3D%22sourcePoint%22%2F%3E%3CmxPoint%20x%3D%22905%22%20y%3D%22-40.00000000000023%22%20as%3D%22targetPoint%22%2F%3E%3CmxPoint%20as%3D%22offset%22%2F%3E%3C%2FmxGeometry%3E%3C%2FmxCell%3E%3C%2Froot%3E%3C%2FmxGraphModel%3E&lt;/span&gt;" style="edgeLabel;html=1;align=center;verticalAlign=middle;resizable=0;points=[];" vertex="1" connectable="0" parent="PxllCTnA1B4NUPqQNNj3-35">
          <mxGeometry x="-0.1967" relative="1" as="geometry">
            <mxPoint as="offset" />
          </mxGeometry>
        </mxCell>
        <mxCell id="PxllCTnA1B4NUPqQNNj3-37" value="&lt;span style=&quot;color: rgba(0 , 0 , 0 , 0) ; font-family: monospace ; font-size: 0px ; background-color: rgb(248 , 249 , 250)&quot;&gt;%3CmxGraphModel%3E%3Croot%3E%3CmxCell%20id%3D%220%22%2F%3E%3CmxCell%20id%3D%221%22%20parent%3D%220%22%2F%3E%3CmxCell%20id%3D%222%22%20value%3D%22%26%2310%3B%26%2310%3B%26lt%3Bspan%20style%3D%26quot%3Bcolor%3A%20rgb(0%2C%200%2C%200)%3B%20font-family%3A%20helvetica%3B%20font-size%3A%2011px%3B%20font-style%3A%20normal%3B%20font-weight%3A%20400%3B%20letter-spacing%3A%20normal%3B%20text-align%3A%20center%3B%20text-indent%3A%200px%3B%20text-transform%3A%20none%3B%20word-spacing%3A%200px%3B%20background-color%3A%20rgb(255%2C%20255%2C%20255)%3B%20display%3A%20inline%3B%20float%3A%20none%3B%26quot%3B%26gt%3BExtended%20from%20CluStream%26lt%3B%2Fspan%26gt%3B%26%2310%3B%26%2310%3B%22%20style%3D%22edgeStyle%3Dnone%3Brounded%3D1%3Bhtml%3D1%3BlabelBackgroundColor%3Dnone%3BstartArrow%3Dnone%3BstartFill%3D0%3BstartSize%3D5%3BendArrow%3DclassicThin%3BendFill%3D1%3BendSize%3D5%3BjettySize%3Dauto%3BorthogonalLoop%3D1%3BstrokeColor%3D%23B3B3B3%3BstrokeWidth%3D1%3BfontFamily%3DVerdana%3BfontSize%3D12%3BentryX%3D0.5%3BentryY%3D1%3BentryDx%3D0%3BentryDy%3D0%3BexitX%3D0.606%3BexitY%3D-0.112%3BexitDx%3D0%3BexitDy%3D0%3BexitPerimeter%3D0%3B%22%20edge%3D%221%22%20parent%3D%221%22%3E%3CmxGeometry%20x%3D%220.6614%22%20y%3D%22-20%22%20relative%3D%221%22%20as%3D%22geometry%22%3E%3CmxPoint%20x%3D%22800.5999999999999%22%20y%3D%2242.75999999999999%22%20as%3D%22sourcePoint%22%2F%3E%3CmxPoint%20x%3D%22905%22%20y%3D%22-40.00000000000023%22%20as%3D%22targetPoint%22%2F%3E%3CmxPoint%20as%3D%22offset%22%2F%3E%3C%2FmxGeometry%3E%3C%2FmxCell%3E%3C%2Froot%3E%3C%2FmxGraphModel%3E&lt;/span&gt;&lt;span style=&quot;color: rgba(0 , 0 , 0 , 0) ; font-family: monospace ; font-size: 0px ; background-color: rgb(248 , 249 , 250)&quot;&gt;%3CmxGraphModel%3E%3Croot%3E%3CmxCell%20id%3D%220%22%2F%3E%3CmxCell%20id%3D%221%22%20parent%3D%220%22%2F%3E%3CmxCell%20id%3D%222%22%20value%3D%22%26%2310%3B%26%2310%3B%26lt%3Bspan%20style%3D%26quot%3Bcolor%3A%20rgb(0%2C%200%2C%200)%3B%20font-family%3A%20helvetica%3B%20font-size%3A%2011px%3B%20font-style%3A%20normal%3B%20font-weight%3A%20400%3B%20letter-spacing%3A%20normal%3B%20text-align%3A%20center%3B%20text-indent%3A%200px%3B%20text-transform%3A%20none%3B%20word-spacing%3A%200px%3B%20background-color%3A%20rgb(255%2C%20255%2C%20255)%3B%20display%3A%20inline%3B%20float%3A%20none%3B%26quot%3B%26gt%3BExtended%20from%20CluStream%26lt%3B%2Fspan%26gt%3B%26%2310%3B%26%2310%3B%22%20style%3D%22edgeStyle%3Dnone%3Brounded%3D1%3Bhtml%3D1%3BlabelBackgroundColor%3Dnone%3BstartArrow%3Dnone%3BstartFill%3D0%3BstartSize%3D5%3BendArrow%3DclassicThin%3BendFill%3D1%3BendSize%3D5%3BjettySize%3Dauto%3BorthogonalLoop%3D1%3BstrokeColor%3D%23B3B3B3%3BstrokeWidth%3D1%3BfontFamily%3DVerdana%3BfontSize%3D12%3BentryX%3D0.5%3BentryY%3D1%3BentryDx%3D0%3BentryDy%3D0%3BexitX%3D0.606%3BexitY%3D-0.112%3BexitDx%3D0%3BexitDy%3D0%3BexitPerimeter%3D0%3B%22%20edge%3D%221%22%20parent%3D%221%22%3E%3CmxGeometry%20x%3D%220.6614%22%20y%3D%22-20%22%20relative%3D%221%22%20as%3D%22geometry%22%3E%3CmxPoint%20x%3D%22800.5999999999999%22%20y%3D%2242.75999999999999%22%20as%3D%22sourcePoint%22%2F%3E%3CmxPoint%20x%3D%22905%22%20y%3D%22-40.00000000000023%22%20as%3D%22targetPoint%22%2F%3E%3CmxPoint%20as%3D%22offset%22%2F%3E%3C%2FmxGeometry%3E%3C%2FmxCell%3E%3C%2Froot%3E%3C%2FmxGraphModel%3E&lt;/span&gt;" style="edgeLabel;html=1;align=center;verticalAlign=middle;resizable=0;points=[];" vertex="1" connectable="0" parent="PxllCTnA1B4NUPqQNNj3-35">
          <mxGeometry x="-0.2298" y="-1" relative="1" as="geometry">
            <mxPoint as="offset" />
          </mxGeometry>
        </mxCell>
        <mxCell id="PxllCTnA1B4NUPqQNNj3-38" value="&amp;nbsp;" style="edgeStyle=none;rounded=1;html=1;labelBackgroundColor=none;startArrow=none;startFill=0;startSize=5;endArrow=classicThin;endFill=1;endSize=5;jettySize=auto;orthogonalLoop=1;strokeColor=#B3B3B3;strokeWidth=1;fontFamily=Verdana;fontSize=12;exitX=1;exitY=0.5;exitDx=0;exitDy=0;entryX=0;entryY=0.5;entryDx=0;entryDy=0;" edge="1" parent="1" source="PxllCTnA1B4NUPqQNNj3-33" target="PxllCTnA1B4NUPqQNNj3-34">
          <mxGeometry x="0.2742" y="2" relative="1" as="geometry">
            <mxPoint x="910" y="-760" as="sourcePoint" />
            <mxPoint x="960" y="-760" as="targetPoint" />
            <mxPoint as="offset" />
          </mxGeometry>
        </mxCell>
        <mxCell id="PxllCTnA1B4NUPqQNNj3-39" value="&lt;span style=&quot;color: rgba(0 , 0 , 0 , 0) ; font-family: monospace ; font-size: 0px ; background-color: rgb(248 , 249 , 250)&quot;&gt;%3CmxGraphModel%3E%3Croot%3E%3CmxCell%20id%3D%220%22%2F%3E%3CmxCell%20id%3D%221%22%20parent%3D%220%22%2F%3E%3CmxCell%20id%3D%222%22%20value%3D%22%26%2310%3B%26%2310%3B%26lt%3Bspan%20style%3D%26quot%3Bcolor%3A%20rgb(0%2C%200%2C%200)%3B%20font-family%3A%20helvetica%3B%20font-size%3A%2011px%3B%20font-style%3A%20normal%3B%20font-weight%3A%20400%3B%20letter-spacing%3A%20normal%3B%20text-align%3A%20center%3B%20text-indent%3A%200px%3B%20text-transform%3A%20none%3B%20word-spacing%3A%200px%3B%20background-color%3A%20rgb(255%2C%20255%2C%20255)%3B%20display%3A%20inline%3B%20float%3A%20none%3B%26quot%3B%26gt%3BExtended%20from%20CluStream%26lt%3B%2Fspan%26gt%3B%26%2310%3B%26%2310%3B%22%20style%3D%22edgeStyle%3Dnone%3Brounded%3D1%3Bhtml%3D1%3BlabelBackgroundColor%3Dnone%3BstartArrow%3Dnone%3BstartFill%3D0%3BstartSize%3D5%3BendArrow%3DclassicThin%3BendFill%3D1%3BendSize%3D5%3BjettySize%3Dauto%3BorthogonalLoop%3D1%3BstrokeColor%3D%23B3B3B3%3BstrokeWidth%3D1%3BfontFamily%3DVerdana%3BfontSize%3D12%3BentryX%3D0.5%3BentryY%3D1%3BentryDx%3D0%3BentryDy%3D0%3BexitX%3D0.606%3BexitY%3D-0.112%3BexitDx%3D0%3BexitDy%3D0%3BexitPerimeter%3D0%3B%22%20edge%3D%221%22%20parent%3D%221%22%3E%3CmxGeometry%20x%3D%220.6614%22%20y%3D%22-20%22%20relative%3D%221%22%20as%3D%22geometry%22%3E%3CmxPoint%20x%3D%22800.5999999999999%22%20y%3D%2242.75999999999999%22%20as%3D%22sourcePoint%22%2F%3E%3CmxPoint%20x%3D%22905%22%20y%3D%22-40.00000000000023%22%20as%3D%22targetPoint%22%2F%3E%3CmxPoint%20as%3D%22offset%22%2F%3E%3C%2FmxGeometry%3E%3C%2FmxCell%3E%3C%2Froot%3E%3C%2FmxGraphModel%3E&lt;/span&gt;" style="edgeLabel;html=1;align=center;verticalAlign=middle;resizable=0;points=[];" vertex="1" connectable="0" parent="PxllCTnA1B4NUPqQNNj3-38">
          <mxGeometry x="-0.1967" relative="1" as="geometry">
            <mxPoint as="offset" />
          </mxGeometry>
        </mxCell>
        <mxCell id="PxllCTnA1B4NUPqQNNj3-40" value="&lt;span style=&quot;color: rgba(0 , 0 , 0 , 0) ; font-family: monospace ; font-size: 0px ; background-color: rgb(248 , 249 , 250)&quot;&gt;%3CmxGraphModel%3E%3Croot%3E%3CmxCell%20id%3D%220%22%2F%3E%3CmxCell%20id%3D%221%22%20parent%3D%220%22%2F%3E%3CmxCell%20id%3D%222%22%20value%3D%22%26%2310%3B%26%2310%3B%26lt%3Bspan%20style%3D%26quot%3Bcolor%3A%20rgb(0%2C%200%2C%200)%3B%20font-family%3A%20helvetica%3B%20font-size%3A%2011px%3B%20font-style%3A%20normal%3B%20font-weight%3A%20400%3B%20letter-spacing%3A%20normal%3B%20text-align%3A%20center%3B%20text-indent%3A%200px%3B%20text-transform%3A%20none%3B%20word-spacing%3A%200px%3B%20background-color%3A%20rgb(255%2C%20255%2C%20255)%3B%20display%3A%20inline%3B%20float%3A%20none%3B%26quot%3B%26gt%3BExtended%20from%20CluStream%26lt%3B%2Fspan%26gt%3B%26%2310%3B%26%2310%3B%22%20style%3D%22edgeStyle%3Dnone%3Brounded%3D1%3Bhtml%3D1%3BlabelBackgroundColor%3Dnone%3BstartArrow%3Dnone%3BstartFill%3D0%3BstartSize%3D5%3BendArrow%3DclassicThin%3BendFill%3D1%3BendSize%3D5%3BjettySize%3Dauto%3BorthogonalLoop%3D1%3BstrokeColor%3D%23B3B3B3%3BstrokeWidth%3D1%3BfontFamily%3DVerdana%3BfontSize%3D12%3BentryX%3D0.5%3BentryY%3D1%3BentryDx%3D0%3BentryDy%3D0%3BexitX%3D0.606%3BexitY%3D-0.112%3BexitDx%3D0%3BexitDy%3D0%3BexitPerimeter%3D0%3B%22%20edge%3D%221%22%20parent%3D%221%22%3E%3CmxGeometry%20x%3D%220.6614%22%20y%3D%22-20%22%20relative%3D%221%22%20as%3D%22geometry%22%3E%3CmxPoint%20x%3D%22800.5999999999999%22%20y%3D%2242.75999999999999%22%20as%3D%22sourcePoint%22%2F%3E%3CmxPoint%20x%3D%22905%22%20y%3D%22-40.00000000000023%22%20as%3D%22targetPoint%22%2F%3E%3CmxPoint%20as%3D%22offset%22%2F%3E%3C%2FmxGeometry%3E%3C%2FmxCell%3E%3C%2Froot%3E%3C%2FmxGraphModel%3E&lt;/span&gt;&lt;span style=&quot;color: rgba(0 , 0 , 0 , 0) ; font-family: monospace ; font-size: 0px ; background-color: rgb(248 , 249 , 250)&quot;&gt;%3CmxGraphModel%3E%3Croot%3E%3CmxCell%20id%3D%220%22%2F%3E%3CmxCell%20id%3D%221%22%20parent%3D%220%22%2F%3E%3CmxCell%20id%3D%222%22%20value%3D%22%26%2310%3B%26%2310%3B%26lt%3Bspan%20style%3D%26quot%3Bcolor%3A%20rgb(0%2C%200%2C%200)%3B%20font-family%3A%20helvetica%3B%20font-size%3A%2011px%3B%20font-style%3A%20normal%3B%20font-weight%3A%20400%3B%20letter-spacing%3A%20normal%3B%20text-align%3A%20center%3B%20text-indent%3A%200px%3B%20text-transform%3A%20none%3B%20word-spacing%3A%200px%3B%20background-color%3A%20rgb(255%2C%20255%2C%20255)%3B%20display%3A%20inline%3B%20float%3A%20none%3B%26quot%3B%26gt%3BExtended%20from%20CluStream%26lt%3B%2Fspan%26gt%3B%26%2310%3B%26%2310%3B%22%20style%3D%22edgeStyle%3Dnone%3Brounded%3D1%3Bhtml%3D1%3BlabelBackgroundColor%3Dnone%3BstartArrow%3Dnone%3BstartFill%3D0%3BstartSize%3D5%3BendArrow%3DclassicThin%3BendFill%3D1%3BendSize%3D5%3BjettySize%3Dauto%3BorthogonalLoop%3D1%3BstrokeColor%3D%23B3B3B3%3BstrokeWidth%3D1%3BfontFamily%3DVerdana%3BfontSize%3D12%3BentryX%3D0.5%3BentryY%3D1%3BentryDx%3D0%3BentryDy%3D0%3BexitX%3D0.606%3BexitY%3D-0.112%3BexitDx%3D0%3BexitDy%3D0%3BexitPerimeter%3D0%3B%22%20edge%3D%221%22%20parent%3D%221%22%3E%3CmxGeometry%20x%3D%220.6614%22%20y%3D%22-20%22%20relative%3D%221%22%20as%3D%22geometry%22%3E%3CmxPoint%20x%3D%22800.5999999999999%22%20y%3D%2242.75999999999999%22%20as%3D%22sourcePoint%22%2F%3E%3CmxPoint%20x%3D%22905%22%20y%3D%22-40.00000000000023%22%20as%3D%22targetPoint%22%2F%3E%3CmxPoint%20as%3D%22offset%22%2F%3E%3C%2FmxGeometry%3E%3C%2FmxCell%3E%3C%2Froot%3E%3C%2FmxGraphModel%3E&lt;/span&gt;" style="edgeLabel;html=1;align=center;verticalAlign=middle;resizable=0;points=[];" vertex="1" connectable="0" parent="PxllCTnA1B4NUPqQNNj3-38">
          <mxGeometry x="-0.2298" y="-1" relative="1" as="geometry">
            <mxPoint as="offset" />
          </mxGeometry>
        </mxCell>
        <mxCell id="PxllCTnA1B4NUPqQNNj3-41" value="&lt;p class=&quot;MsoNormal&quot;&gt;ODAC&lt;br&gt;&lt;/p&gt;" style="whiteSpace=wrap;html=1;rounded=1;shadow=1;comic=0;labelBackgroundColor=none;strokeWidth=2;fontFamily=Verdana;fontSize=12;align=center;arcSize=50;" vertex="1" parent="1">
          <mxGeometry x="550" y="-670" width="100" height="20" as="geometry" />
        </mxCell>
        <mxCell id="PxllCTnA1B4NUPqQNNj3-42" value="" style="edgeStyle=none;rounded=1;html=1;labelBackgroundColor=none;startArrow=none;startFill=0;startSize=5;endArrow=classicThin;endFill=1;endSize=5;jettySize=auto;orthogonalLoop=1;strokeColor=#B3B3B3;strokeWidth=1;fontFamily=Verdana;fontSize=12;entryX=0.5;entryY=1;entryDx=0;entryDy=0;exitX=0.394;exitY=0.023;exitDx=0;exitDy=0;exitPerimeter=0;" edge="1" parent="1" source="PxllCTnA1B4NUPqQNNj3-2" target="PxllCTnA1B4NUPqQNNj3-41">
          <mxGeometry relative="1" as="geometry">
            <mxPoint x="600.3207205115059" y="-591.2288896212889" as="sourcePoint" />
            <mxPoint x="493.5416666666665" y="-670.0000000000001" as="targetPoint" />
          </mxGeometry>
        </mxCell>
        <mxCell id="PxllCTnA1B4NUPqQNNj3-46" value="&lt;div&gt;&lt;span style=&quot;font-size: 7.97pt ; font-family: &amp;#34;cmr8&amp;#34;&quot;&gt;PreDeCon&lt;/span&gt;&lt;span style=&quot;font-family: &amp;#34;cmr8&amp;#34; ; font-size: 7.97pt&quot;&gt;Stream&lt;/span&gt;&lt;/div&gt;" style="whiteSpace=wrap;html=1;rounded=1;shadow=1;comic=0;labelBackgroundColor=none;strokeWidth=2;fontFamily=Verdana;fontSize=12;align=center;arcSize=50;" vertex="1" parent="1">
          <mxGeometry x="790" y="-395" width="150" height="40" as="geometry" />
        </mxCell>
        <mxCell id="PxllCTnA1B4NUPqQNNj3-47" value="&lt;div&gt;&lt;span style=&quot;font-size: 7.97pt ; font-family: &amp;#34;cmr8&amp;#34;&quot;&gt;HDDStream&lt;/span&gt;&lt;/div&gt;" style="whiteSpace=wrap;html=1;rounded=1;shadow=1;comic=0;labelBackgroundColor=none;strokeWidth=2;fontFamily=Verdana;fontSize=12;align=center;arcSize=50;" vertex="1" parent="1">
          <mxGeometry x="990" y="-395" width="100" height="20" as="geometry" />
        </mxCell>
        <mxCell id="PxllCTnA1B4NUPqQNNj3-48" value="" style="edgeStyle=none;rounded=1;html=1;labelBackgroundColor=none;startArrow=none;startFill=0;startSize=5;endArrow=classicThin;endFill=1;endSize=5;jettySize=auto;orthogonalLoop=1;strokeColor=#B3B3B3;strokeWidth=1;fontFamily=Verdana;fontSize=12;entryX=0.5;entryY=0;entryDx=0;entryDy=0;" edge="1" parent="1" target="PxllCTnA1B4NUPqQNNj3-46">
          <mxGeometry relative="1" as="geometry">
            <mxPoint x="780.3139375485853" y="-471.7920239063942" as="sourcePoint" />
            <mxPoint x="915.2631578947367" y="-530.0000000000002" as="targetPoint" />
          </mxGeometry>
        </mxCell>
        <mxCell id="PxllCTnA1B4NUPqQNNj3-49" value="" style="edgeStyle=none;rounded=1;html=1;labelBackgroundColor=none;startArrow=none;startFill=0;startSize=5;endArrow=classicThin;endFill=1;endSize=5;jettySize=auto;orthogonalLoop=1;strokeColor=#B3B3B3;strokeWidth=1;fontFamily=Verdana;fontSize=12;entryX=0.5;entryY=0;entryDx=0;entryDy=0;" edge="1" parent="1" target="PxllCTnA1B4NUPqQNNj3-47">
          <mxGeometry relative="1" as="geometry">
            <mxPoint x="780" y="-470" as="sourcePoint" />
            <mxPoint x="925.2631578947367" y="-520.0000000000002" as="targetPoint" />
          </mxGeometry>
        </mxCell>
      </root>
    </mxGraphModel>
  </diagram>
</mxfile>
